<svg width="1710" height="309" viewBox="0 0 1710 309" fill="none" xmlns="http://www.w3.org/2000/svg">
<path d="M66.2697 0L300.593 125.175V183.214L66.2697 308.389H0L119.978 162.424H249.917V145.964H119.978L0 0H66.2697Z" fill="white"/>
<path d="M793.548 88.3975H706.907V140.613H784.91V165.54H706.907L706.965 220.641V246.355H678.638V165.54L706.907 140.613L678.638 98.9139V62.6841H793.548V88.3975Z" fill="white"/>
<path d="M793.548 246.355H706.965V220.641H793.548V246.355Z" fill="white"/>
<path fill-rule="evenodd" clip-rule="evenodd" d="M1038.87 246.355H1013.22L998.559 204.373H940.043L920.294 181.02L912.195 204.373H912.18L897.26 246.355H871.608L937.308 62.6841H973.168L1038.87 246.355ZM920.294 181.02H990.183L957.202 88.3975H953.013L920.294 181.02Z" fill="white"/>
<path fill-rule="evenodd" clip-rule="evenodd" d="M1186.55 62.6841C1204 62.6841 1219.53 66.2698 1233.14 73.4416C1246.75 80.6135 1257.39 91.1095 1265.07 104.929C1272.75 118.748 1276.59 135.278 1276.59 154.519C1276.59 173.761 1272.84 190.291 1265.33 204.11C1257.83 217.755 1247.27 228.251 1233.66 235.597C1220.05 242.769 1204.34 246.355 1186.55 246.355H1177.94L1150.16 220.116L1149.7 246.355H1121.89V62.6841H1186.55ZM1150.16 220.116H1186.02C1199.28 220.116 1210.63 217.23 1220.05 211.457C1229.47 205.685 1236.54 197.813 1241.25 187.842C1245.96 177.872 1248.32 166.764 1248.32 154.519C1248.32 142.275 1245.96 131.167 1241.25 121.197C1236.54 111.051 1229.47 103.092 1220.05 97.3192C1210.63 91.3717 1199.28 88.3975 1186.02 88.3975H1150.16V220.116Z" fill="white"/>
<path d="M1631.38 140.876L1647.61 169.026V246.355H1619.34V167.114L1558.09 62.6841H1587.15L1631.38 140.876Z" fill="white"/>
<path d="M1661.95 142.921H1632.56L1680.07 62.6841H1709.12L1661.95 142.921Z" fill="white"/>
<path d="M516.135 62.6841L516.193 220.641L487.956 246.355H487.865V62.6841H516.135Z" fill="white"/>
<path d="M602.776 246.355H516.193V220.641H602.776V246.355Z" fill="white"/>
<path d="M1481.35 88.3977H1394.71V140.613H1472.72V165.54H1394.71L1394.77 220.642V246.355H1366.44V165.54L1394.71 140.613L1366.44 98.4514V62.6842H1481.35V88.3977Z" fill="white"/>
<path d="M1481.35 246.355H1394.77V220.642H1481.35V246.355Z" fill="white"/>
</svg>
